<?xml version="1.0" encoding="utf-8"?>
<!-- Generator: Adobe Illustrator 21.0.0, SVG Export Plug-In . SVG Version: 6.00 Build 0)  -->
<svg version="1.1" id="icons" xmlns="http://www.w3.org/2000/svg" xmlns:xlink="http://www.w3.org/1999/xlink" x="0px" y="0px"
	 viewBox="0 0 1024 1024" style="enable-background:new 0 0 1024 1024;" xml:space="preserve">
<style type="text/css">
	.st0{fill-rule:evenodd;clip-rule:evenodd;}
	.st1{fill:none;}
	.st2{fill:#020202;}
	.st3{fill:none;stroke:#EE3E43;stroke-width:15.4184;stroke-linejoin:round;stroke-miterlimit:10;}
	.st4{fill:#010002;}
</style>
<g>
	<path class="st2" d="M826,855H199.2c-15.7,0-28.5,12.3-28.5,28c0,15.7,12.7,28,28.5,28H826c15.7,0,28.5-12.3,28.5-28
		C854.5,867.3,841.7,855,826,855z"/>
	<path class="st2" d="M939.9,113H85.3C38.1,113,0,151.1,0,198.3v512.8C0,758.3,38.1,797,85.3,797h854.7c47.2,0,84.1-38.7,84.1-85.9
		V198.3C1024,151.1,987.1,113,939.9,113z M977,711.1c0,21.1-15.9,37.9-37.1,37.9H85.3C64.1,749,47,732.3,47,711.1V198.3
		c0-21.1,17.1-38.3,38.3-38.3h854.7c21.1,0,37.1,17.2,37.1,38.3V711.1z"/>
</g>
</svg>
