<?xml version="1.0" encoding="utf-8"?>
<!-- Generator: Adobe Illustrator 21.0.0, SVG Export Plug-In . SVG Version: 6.00 Build 0)  -->
<svg version="1.1" id="icons" xmlns="http://www.w3.org/2000/svg" xmlns:xlink="http://www.w3.org/1999/xlink" x="0px" y="0px"
	 viewBox="0 0 1024 1024" style="enable-background:new 0 0 1024 1024;" xml:space="preserve">
<style type="text/css">
	.st0{fill-rule:evenodd;clip-rule:evenodd;}
	.st1{fill:none;}
	.st2{fill:#020202;}
	.st3{fill:none;stroke:#EE3E43;stroke-width:15.4184;stroke-linejoin:round;stroke-miterlimit:10;}
	.st4{fill:#010002;}
</style>
<g>
	<path d="M512,0C229.2,0,0,229.2,0,512c0,282.8,229.2,512,512,512c282.8,0,512-229.2,512-512C1024,229.2,794.8,0,512,0z M841,841
		c-87.9,87.9-204.7,136.3-329,136.3c-124.3,0-241.1-48.4-329-136.3C95.1,753.1,46.7,636.3,46.7,512c0-124.3,48.4-241.1,136.3-329
		C270.9,95.1,387.7,46.7,512,46.7c124.3,0,241.1,48.4,329,136.3c87.9,87.9,136.3,204.7,136.3,329C977.3,636.3,928.9,753.1,841,841z"
		/>
	<polygon points="452.7,360 422.2,474 314.6,474 345.5,360 260.5,360 178.6,665 263.6,665 294.5,550 402.2,550 370.8,665 455.8,665 
		537.7,360 	"/>
	<path d="M808.4,399.4C785.3,376.3,748.2,360,689,360h-98.5l-81.9,305h122.9c70.6,0,123.3-19.4,160-56
		c32.7-32.7,50.1-74.5,50.1-120.3C841.5,451.6,831,422,808.4,399.4z M728.6,559.8c-20,20-51.9,31.2-87.2,31.2h-27.9l41.8-155h24.4
		c29.6,0,48.4,6.6,59.7,18.4c9.6,9.6,15.3,23.1,15.3,41.8C754.8,520.1,744.7,543.6,728.6,559.8z"/>
</g>
</svg>
