<?xml version="1.0" encoding="utf-8"?>
<!-- Generator: Adobe Illustrator 21.0.0, SVG Export Plug-In . SVG Version: 6.00 Build 0)  -->
<svg version="1.1" id="icons" xmlns="http://www.w3.org/2000/svg" xmlns:xlink="http://www.w3.org/1999/xlink" x="0px" y="0px"
	 viewBox="0 0 1024 1024" style="enable-background:new 0 0 1024 1024;" xml:space="preserve">
<style type="text/css">
	.st0{fill-rule:evenodd;clip-rule:evenodd;}
	.st1{fill:none;}
	.st2{fill:#020202;}
	.st3{fill:none;stroke:#EE3E43;stroke-width:15.4184;stroke-linejoin:round;stroke-miterlimit:10;}
	.st4{fill:#010002;}
</style>
<path d="M687.9,72.9C641,26,578.4,0.1,512,0.1S383,26,336,72.9c-47,47-73,109.4-73,175.8v341c0,66.4,25.7,128.9,72.7,175.8
	c40.2,40.2,92.3,64.9,147.3,71.2V967H369.8c-15.7,0-28.4,12.8-28.4,28.5c0,15.7,12.7,28.5,28.4,28.5h284.1
	c15.7,0,28.4-12.8,28.4-28.5c0-15.7-12.7-28.5-28.4-28.5H540V836.7c56-6.3,107.6-31,147.8-71.2c47-47,73.2-109.4,73.2-175.8v-341
	C761,182.3,734.9,119.9,687.9,72.9z M511.5,795.7c-113.6,0-205.5-92.4-205.5-206v-341c0-113.6,91.9-206,205.5-206
	S717,135.2,717,248.7v0.9c-2-0.6-3.8-0.6-6.2-0.6H568.7c-15.7,0-28.4,12.3-28.4,28c0,15.7,12.7,28,28.4,28h142.1
	c2.4,0,4.2,0.3,6.2-0.3v87c-2-0.6-3.8-0.7-6.2-0.7H568.7c-15.7,0-28.4,12.8-28.4,28.5c0,15.7,12.7,28.5,28.4,28.5h142.1
	c2.4,0,4.2-0.7,6.2-1.2v87c-2-0.6-3.8-0.8-6.2-0.8H568.7c-15.7,0-28.4,12.3-28.4,28c0,15.7,12.7,28,28.4,28h142.1
	c2.4,0,4.2,0.4,6.2-0.2v0.9C717,703.3,625.1,795.7,511.5,795.7z"/>
</svg>
