<?xml version="1.0" encoding="utf-8"?>
<!-- Generator: Adobe Illustrator 21.0.2, SVG Export Plug-In . SVG Version: 6.00 Build 0)  -->
<svg version="1.1" id="icons" xmlns="http://www.w3.org/2000/svg" xmlns:xlink="http://www.w3.org/1999/xlink" x="0px" y="0px"
	 viewBox="0 0 1024 1024" style="enable-background:new 0 0 1024 1024;" xml:space="preserve">
<style type="text/css">
	.st0{fill:#0033FF;}
</style>
<path class="st0" d="M989.6,341.7c-22-52.1-53.6-98.9-93.8-139c-40.2-40.2-87-71.7-139.1-93.7c-54-22.8-111.3-34.4-170.3-34.4
	c-59.1,0-116.3,11.6-170.3,34.4c-52.1,22-98.9,53.6-139.1,93.7c-40.2,40.2-71.7,87-93.8,139c-13.5,31.9-23,64.9-28.6,98.8
	c-0.2,1-1.5,1.4-2.1,0.5L46.4,304.8c-9.1-11.7-25.6-13.2-36.8-3.4c-11.2,9.8-12.8,27.3-3.7,39l148.9,190.8
	c9.1,11.7,25.6,13.2,36.8,3.4l182-160.1c11.2-9.8,12.8-27.3,3.7-39c-9.1-11.7-25.6-13.3-36.8-3.4L202.8,453.2c-0.8,0.7-2.1,0-2-1.1
	c28.9-186.8,190.8-330.4,385.6-330.4c215.2,0,390.2,175,390.2,390.2S801.5,902.1,586.4,902.1c-93.7,0-182.9-33.1-253.6-93.6
	c-9-7.7-22.4-7.1-30.5,1.5l0,0c-9.9,10.4-9,27.1,2,36.4c78.9,66.7,178.1,103.1,282.1,103.1c59.1,0,116.3-11.6,170.3-34.4
	c52.1-22,98.9-53.6,139.1-93.7c40.2-40.2,71.7-87,93.8-139.1c22.8-54,34.4-111.3,34.4-170.3C1024,452.9,1012.4,395.6,989.6,341.7z"
	/>
</svg>
