<?xml version="1.0" encoding="utf-8"?>
<!-- Generator: Adobe Illustrator 21.0.2, SVG Export Plug-In . SVG Version: 6.00 Build 0)  -->
<svg version="1.1" id="icons" xmlns="http://www.w3.org/2000/svg" xmlns:xlink="http://www.w3.org/1999/xlink" x="0px" y="0px"
	 viewBox="0 0 1024 1024" style="enable-background:new 0 0 1024 1024;" xml:space="preserve">
<style type="text/css">
	.st0{fill:#2E6AB7;}
</style>
<path class="st0" d="M961.8,199H829.2c-34.4,0-64.2,27.9-64.2,62.4V394c0,12.3,4.4,23.7,10.5,33.3L594.4,646.4
	c-17.2-12.9-38-21.7-60.1-25.2c0.1-0.9-0.2-1.8-0.2-2.8V391h45.2c34.5,0,60.8-27.2,60.8-61.6V196.7c0-34.5-26.4-62.7-60.8-62.7
	H446.5c-34.4,0-64.5,28.3-64.5,62.7v132.6c0,34.5,30.1,61.6,64.5,61.6H490v227.4c0,1.1,0.4,2.1,0.5,3.2
	c-19.9,3.5-38.2,11.3-54.1,22.5L250.8,422.8c4.9-8.9,7.2-19.1,7.2-29.9V260.2c0-34.5-27-62.2-61.4-62.2H63.9
	C29.5,198,0,225.8,0,260.2v132.6C0,427.3,29.5,455,63.9,455h132.6c10.3,0,20.1-2.5,28.7-6.9l177.1,230.6
	c-14.8,21.6-23.4,47.8-23.4,75.9c0,74.5,60.6,135.1,135.1,135.1s135.1-60.6,135.1-135c0-27.3-8.1-52.7-22.1-73.9l175.7-230.4
	c8.1,3.8,17.1,5.8,26.5,5.8h132.6c34.5,0,62.2-27.5,62.2-62V261.4C1024,226.9,996.3,199,961.8,199z M428,329.4V196.7
	c0-9.4,9.2-16.7,18.5-16.7h132.6c9.4,0,15.8,7.4,15.8,16.7v132.6c0,9.4-6.4,17.6-15.8,17.6H446.5C437.2,347,428,338.8,428,329.4z
	 M63.9,411c-9.4,0-18.9-8.8-18.9-18.1V260.2c0-9.4,9.6-18.2,18.9-18.2h132.6c9.4,0,16.4,8.9,16.4,18.2v132.6c0,9.4-7,18.1-16.4,18.1
	L63.9,411L63.9,411z M514,844.2c-49.4,0-89.6-40.2-89.6-89.6c0-49.4,40.2-89.6,89.6-89.6s89.6,40.2,89.6,89.6S563.4,844.2,514,844.2
	z M978,394c0,9.4-6.8,18-16.2,18H829.2c-9.4,0-18.2-8.6-18.2-18V261.4c0-9.4,8.8-18.4,18.2-18.4h132.6c9.4,0,16.2,9,16.2,18.4
	L978,394L978,394z"/>
</svg>
