<?xml version="1.0" encoding="utf-8"?>
<!-- Generator: Adobe Illustrator 21.0.0, SVG Export Plug-In . SVG Version: 6.00 Build 0)  -->
<svg version="1.1" id="icons" xmlns="http://www.w3.org/2000/svg" xmlns:xlink="http://www.w3.org/1999/xlink" x="0px" y="0px"
	 viewBox="0 0 1024 1024" style="enable-background:new 0 0 1024 1024;" xml:space="preserve">
<style type="text/css">
	.st0{fill-rule:evenodd;clip-rule:evenodd;}
	.st1{fill:none;}
	.st2{fill:#020202;}
	.st3{fill:none;stroke:#EE3E43;stroke-width:15.4184;stroke-linejoin:round;stroke-miterlimit:10;}
	.st4{fill:#010002;}
</style>
<path d="M975.9,538H948V435.2c0-28.2-23-50.8-51-50.9V230.4c0-28.3-20.8-51.4-49.1-51.4H54.4C26.1,179,0,202.1,0,230.4v486.4
	C0,745,26.1,769,54.4,769H564v24H28.8c-14.1,0-25.6,11.9-25.6,26c0,14.1,11.5,26,25.6,26h588.8h256c1.4,0,2.7,0,4,0h21.6h76.8
	c28.3,0,48.1-23.2,48.1-51.4V588.8C1024,560.5,1004.2,538,975.9,538z M564,435.2V727H54.4c-5.3,0-12.4-4.9-12.4-10.2V230.4
	c0-5.3,7.1-9.4,12.4-9.4h793.5c5.3,0,7.1,4.1,7.1,9.4V385H617.6C589.3,385,564,406.9,564,435.2z M859.8,539.2
	c-0.1,0-0.3,0.1-0.4,0.1c-0.6,0.2-1.2,0.4-1.7,0.6c-1.6,0.5-3.2,1.1-4.8,1.8c-16.4,7.3-28.2,23.1-30.1,41.7c0,0.1,0,0.2,0,0.3
	c-0.1,0.7-0.1,1.4-0.2,2.1c0,0.2-1.2,0.3-1.2,0.5c0,0.8-1.3,1.6-1.3,2.5v137.8v41.8v24.7v0.2c0,3.3,2.7,6.7,3.3,10.7H617.6
	c-5.3,0-12.6-5.1-12.6-10.4v-0.5v-24.7v-41.8V435.2c0-5.3,7.3-10.2,12.6-10.2h240.1h41.5c0.1,0-1.3,0.1-1.2,0.1
	c5.2,0.2,8,4.9,8,10.1V538h-6.6h-25.9c-0.8,0-1.6-0.3-2.4-0.3c-0.3,0-0.5-0.1-0.8-0.1c-0.6,0-1.1,0-1.7,0c-0.3,0-0.5,0-0.8,0
	c-0.6,0.1-1.3,0.1-1.9,0.2c-0.1,0-0.3,0-0.4,0c-1.6,0.2-3.1,0.6-4.6,0.9C860.6,539,860.2,539.1,859.8,539.2z M983,793.6
	c0,5.3-1.8,10.4-7.1,10.4h-26.5h-55.6h-20.3h0c-5.3,0-12.5-5.1-12.5-10.4v-0.2v-0.2v-27.8V588.8c0-5.3,7.2-8.8,12.5-8.8h25.9h9.5
	h41.8h25.1c5.3,0,7.1,3.5,7.1,8.8V793.6z"/>
</svg>
