<?xml version="1.0" encoding="utf-8"?>
<!-- Generator: Adobe Illustrator 21.0.2, SVG Export Plug-In . SVG Version: 6.00 Build 0)  -->
<svg version="1.1" id="icons" xmlns="http://www.w3.org/2000/svg" xmlns:xlink="http://www.w3.org/1999/xlink" x="0px" y="0px"
	 viewBox="0 0 1024 1024" style="enable-background:new 0 0 1024 1024;" xml:space="preserve">
<g>
	<path d="M1024,292.6C1024,131,893.7,0,732.1,0H293.3C131.7,0,0,131,0,292.6v438.9C0,893,131.7,1024,293.3,1024h438.9
		c161.6,0,291.9-131,291.9-292.6L1024,292.6L1024,292.6z M731.4,973H292.5C159.5,973,51,865.2,51,732.1V293.3
		C51,160.2,159.5,51,292.5,51h438.8C864.5,51,971,160.2,971,293.3v438.8C971,865.2,864.5,973,731.4,973z"/>
	<path d="M757.7,490.3L453.3,286.7c-0.8-0.5-1.9-1-2.7-1.5C403.4,256,342,291.3,342,346.9v360.8c0,55.6,61.3,90.9,108.7,61.7
		c0.8-0.5,1.7-1,2.5-1.5l304.5-203.6C788.3,543.9,788.3,510.8,757.7,490.3z M708.6,545.4c-9.3,6.4-21,13.3-32.9,20.7L428.9,731.5
		c-0.3,0.2-0.6,0.4-0.9,0.6c-4.3,2.6-9.1,4-13.8,4c-13.5,0-28.3-11.4-28.3-28.3V346.9c0-17,14.7-28.3,28.3-28.3
		c4.7,0,9.3,1.3,13.6,4c0.3,0.2,0.7,0.4,1,0.6l260.8,169.3c1.4,0.9,3.3,2.1,5.4,3.5c8.3,5.4,21.2,14.1,31.2,23.7
		C733,526.1,724,535,708.6,545.4z"/>
</g>
</svg>
