<?xml version="1.0" encoding="utf-8"?>
<!-- Generator: Adobe Illustrator 23.1.0, SVG Export Plug-In . SVG Version: 6.00 Build 0)  -->
<svg version="1.1" id="Layer_1" xmlns="http://www.w3.org/2000/svg" xmlns:xlink="http://www.w3.org/1999/xlink" x="0px" y="0px"
	 viewBox="0 0 1024 1024" style="enable-background:new 0 0 1024 1024;" xml:space="preserve">
<style type="text/css">
	.st0{fill:#010101;}
</style>
<g>
	<path class="st0" d="M1023.8,225.4v225.4l-30.5,30.5L962.6,512l30.7,30.7l30.5,30.5v225.4v225.2h-512H0V799V573.4l30.5-30.5
		l30.7-30.7l-30.7-30.7L0,451V225.4V0.2h512h512v225.2H1023.8z M49.6,239.4v189.7L91,470.6l41.7,41.7L91,553.9l-41.4,41.4V785v189.7
		h462.2H974V785V595.3l-41.4-41.4l-41.7-41.7l41.7-41.7l41.4-41.4V239.4V49.8H511.8H49.6V239.4z"/>
	<path class="st0" d="M420.6,200l32.2,32.2V309v76.7l-32,32l-32.2,32.2h-85.7h-85.7V308.7V167.5h85.7h85.7L420.6,200z M266.9,309
		v91.4h50.2h50.2l16.4-17.8l16.4-17.5V309v-56.4l-16.7-17.8l-16.7-17.8h-50.2h-49.8V309z"/>
	<path class="st0" d="M771.8,308.7c32,77.2,58.1,140.3,58.1,140.8s-12.1,0.7-27,0.7h-27l-7-16.7l-7-16.7h-71.7h-71.7l-6.6,16.2
		l-6.6,16.2l-27.4,0.4c-21.7,0.2-27.4,0-26.8-1.5c0.4-1.1,26.3-63.8,57.7-139.2c31.4-75.6,57.2-138.1,57.7-139.2
		c0.7-1.3,6.4-1.8,24.1-1.5l23,0.4L771.8,308.7z M665.9,303.9c-12.9,31.4-24.1,58.1-24.6,59.6c-0.9,2.6,2,2.9,49.1,2.9
		c40.1,0,49.8-0.4,49.3-2c-1.1-4.4-48.5-117.5-49.3-117.5C689.8,246.9,679.1,272.8,665.9,303.9z"/>
	<polygon class="st0" points="431.3,598.8 431.3,623.6 357.4,715 284,806.3 357.4,806.7 431.3,806.9 431.3,831.9 431.3,856.7 
		324.1,856.7 217.1,856.7 217.1,831.3 217.3,806.3 291.4,715.5 365.5,624.7 291.2,624.3 217.1,623.8 217.1,599.1 217.1,574.3 
		324.1,574.3 431.3,574.3 	"/>
	<polygon class="st0" points="685.9,674.7 756.3,775.6 756.7,674.7 756.9,574.3 781.9,574.3 806.7,574.3 806.7,715.5 806.7,856.7 
		778.4,856.7 750.1,856.7 687.2,765.3 624.3,674 623.8,765.5 623.6,856.7 597.3,856.7 570.8,856.7 570.8,715.5 570.8,574.3 
		593.1,574.3 615.3,574.3 	"/>
</g>
</svg>
