<svg
    xmlns="http://www.w3.org/2000/svg" style="display: none;">
    <symbol id="icon-angle-down" viewBox="0 0 512 512">
        <path d="m399 210c0 3-1 5-3 7l-133 133c-2 2-5 3-7 3-2 0-5-1-7-3l-133-133c-2-2-3-4-3-7 0-2 1-4 3-6l15-15c1-1 4-2 6-2 3 0 5 1 7 2l112 113 112-113c2-1 4-2 7-2 2 0 5 1 6 2l15 15c2 2 3 4 3 6z"/>
    </symbol>
    <symbol id="icon-angle-left" viewBox="0 0 512 512">
        <path d="m344 155c0 3-1 5-3 7l-112 112 112 113c2 1 3 4 3 6 0 3-1 5-3 7l-14 14c-2 2-5 3-7 3-2 0-5-1-7-3l-133-133c-2-2-3-4-3-7 0-2 1-4 3-6l133-133c2-2 5-3 7-3 2 0 5 1 7 3l14 14c2 2 3 4 3 6z"/>
    </symbol>
    <symbol id="icon-angle-right" viewBox="0 0 512 512">
        <path d="m335 274c0 3-1 5-3 7l-133 133c-2 2-5 3-7 3-2 0-5-1-7-3l-14-14c-2-2-3-4-3-7 0-2 1-5 3-6l112-113-112-112c-2-2-3-4-3-7 0-2 1-4 3-6l14-14c2-2 5-3 7-3 2 0 5 1 7 3l133 133c2 2 3 4 3 6z"/>
    </symbol>
    <symbol id="icon-angle-up" viewBox="0 0 512 512">
        <path d="m399 338c0 3-1 5-3 7l-15 14c-1 2-4 3-6 3-3 0-5-1-7-3l-112-112-112 112c-2 2-4 3-7 3-2 0-5-1-6-3l-15-14c-2-2-3-4-3-7 0-2 1-4 3-6l133-133c2-2 5-3 7-3 2 0 5 1 7 3l133 133c2 2 3 4 3 6z"/>
    </symbol>
    <symbol id="icon-heart-o" viewBox="0 0 512 512">
        <path d="m475 170c0-15-2-29-6-41-4-11-9-21-15-28-7-7-15-12-24-17-9-4-18-7-27-9-8-1-18-2-28-2-9 0-20 3-32 7-11 5-22 11-31 19-10 7-18 14-25 20-7 7-12 13-17 18-3 4-8 6-14 6-6 0-11-2-14-6-5-5-10-11-17-18-7-6-15-13-25-20-9-8-20-14-31-19-12-4-23-7-32-7-10 0-20 1-28 2-9 2-18 5-27 9-9 5-17 10-24 17-6 7-11 17-15 28-4 12-6 26-6 41 0 32 17 66 53 102l166 160 166-160c36-36 53-70 53-102z m37 0c0 42-22 85-65 129l-178 171c-4 4-8 5-13 5-5 0-9-1-13-5l-178-172c-2-1-4-4-8-7-3-4-8-10-16-19-7-9-13-18-19-28-6-9-11-21-15-34-5-14-7-27-7-40 0-42 12-74 36-98 24-24 58-35 101-35 11 0 23 2 36 6 12 4 23 9 34 16 11 7 20 14 27 20 8 6 15 12 22 19 7-7 14-13 22-19 7-6 16-13 27-20 11-7 22-12 34-16 13-4 25-6 36-6 43 0 77 11 101 35 24 24 36 56 36 98z"/>
    </symbol>
    <symbol id="icon-android-done" viewBox="0 0 512 512">
        <path d="m186 340l-90-91-32 31 122 122 262-261-32-31z"/>
    </symbol>
    <symbol id="icon-android-close" viewBox="0 0 512 512">
        <path d="m405 137l-30-30-119 119-119-119-30 30 119 119-119 119 30 30 119-119 119 119 30-30-119-119z"/>
    </symbol>
    <symbol id="icon-android-sunny" viewBox="0 0 512 512">
        <path d="m256 160c26 0 50 10 68 28 18 18 28 43 28 68 0 26-10 50-28 68-18 18-42 28-68 28-25 0-50-10-68-28-18-18-28-42-28-68 0-25 10-50 28-68 18-18 43-28 68-28m21-128l-42 0 0 64 42 0z m129 44l-38 38 30 30 38-38z m-300 0l-30 30 38 38 30-30z m150 52c-70 0-128 58-128 128 0 70 58 128 128 128 70 0 128-58 128-128 0-70-58-128-128-128z m224 107l-64 0 0 42 64 0z m-384 0l-64 0 0 42 64 0z m302 133l-30 30 38 38 30-30z m-284 0l-38 38 30 30 38-38z m163 48l-42 0 0 64c6 0 42 0 42 0z"/>
    </symbol>
    <symbol id="icon-gear-b" viewBox="0 0 512 512">
        <path d="m448 294l0-76-43 0c-3-15-9-28-16-41l30-30-54-54-29 29c-13-7-27-13-42-17l0-41-76 0 0 41c-15 4-29 10-41 17l-30-29-54 54 30 30c-7 13-13 26-16 41l-43 0 0 76 44 0c4 14 10 27 17 39l-32 32 54 54 33-32c11 7 24 12 38 15l0 46 76 0 0-46c14-3 27-8 38-15l33 32 54-54-32-32c8-12 13-25 17-39z m-192 16c-30 0-54-24-54-54 0-30 24-54 54-54 30 0 54 24 54 54 0 30-24 54-54 54z"/>
    </symbol>
    <symbol id="icon-ios-arrow-down" viewBox="0 0 512 512">
        <path d="m397 160l19 21-160 171-160-171 19-21 141 151z"/>
    </symbol>
    <symbol id="icon-ios-arrow-left" viewBox="0 0 512 512">
        <path d="m352 115l-21-19-171 160 171 160 21-19-150-141z"/>
    </symbol>
    <symbol id="icon-ios-arrow-up" viewBox="0 0 512 512">
        <path d="m397 352l19-21-160-171-160 171 19 21 141-150z"/>
    </symbol>
    <symbol id="icon-ios-close-empty" viewBox="0 0 512 512">
        <path d="m340 160l-84 84-84-84-12 12 84 84-84 84 12 12 84-84 84 84 12-12-84-84 84-84z"/>
    </symbol>
    <symbol id="icon-ios-checkmark-empty" viewBox="0 0 512 512">
        <path d="m224 330c-2 2-6 4-9 4-3 0-6-2-9-4l-56-56 18-18 47 47 125-126 18 18z"/>
    </symbol>
    <symbol id="icon-heart" viewBox="0 0 512 512">
        <path d="m256 475c-5 0-9-1-13-5l-178-172c-2-1-4-4-8-7-3-4-8-10-16-19-7-9-13-18-19-28-6-9-11-21-15-34-5-14-7-27-7-40 0-42 12-74 36-98 24-24 58-35 101-35 11 0 23 2 36 6 12 4 23 9 34 16 11 7 20 14 27 20 8 6 15 12 22 19 7-7 14-13 22-19 7-6 16-13 27-20 11-7 22-12 34-16 13-4 25-6 36-6 43 0 77 11 101 35 24 24 36 56 36 98 0 42-22 85-65 129l-178 171c-4 4-8 5-13 5z"/>
    </symbol>
    <symbol id="icon-youtube" viewBox="0 0 512 512">
        <path d="m314 355l0 61c0 12-4 19-11 19-5 0-9-2-13-6l0-86c4-5 8-7 13-7 7 0 11 7 11 19z m97 1l0 13-26 0 0-13c0-13 4-20 13-20 8 0 13 7 13 20z m-276-63l30 0 0-26-89 0 0 26 30 0 0 163 29 0z m82 163l25 0 0-141-25 0 0 108c-6 8-11 12-16 12-4 0-6-2-6-6-1-1-1-4-1-10l0-104-25 0 0 112c0 9 1 16 2 20 2 7 8 11 17 11 9 0 19-6 29-17z m122-42l0-57c0-13 0-23-2-28-3-11-10-16-20-16-10 0-19 5-27 16l0-62-25 0 0 189 25 0 0-14c9 11 17 16 27 16 10 0 17-5 20-16 2-5 2-14 2-28z m97-3l0-4-26 0c0 10 0 16-1 18-1 6-5 10-11 10-9 0-13-7-13-20l0-25 51 0 0-29c0-15-3-26-8-33-7-10-17-15-30-15-13 0-23 5-31 15-5 7-8 18-8 33l0 49c0 15 3 26 9 33 7 10 17 15 31 15 13 0 24-5 30-15 4-5 6-10 6-16 1-1 1-7 1-16z m-174-261l0-60c0-13-4-20-12-20-8 0-12 7-12 20l0 60c0 13 4 20 12 20 8 0 12-7 12-20z m206 215c0 44-3 77-8 100-2 11-8 20-16 28-9 7-18 12-29 13-35 4-88 6-159 6-71 0-124-2-159-6-11-1-20-6-29-13-8-8-14-17-16-28-5-22-8-55-8-100 0-45 3-78 8-100 2-12 8-21 16-29 9-7 18-12 30-13 35-4 87-6 158-6 71 0 124 2 159 6 11 1 20 6 29 13 8 8 14 17 16 29 5 21 8 54 8 100z m-285-365l29 0-35 114 0 77-28 0 0-77c-3-14-9-34-18-61-7-19-13-37-18-53l30 0 20 75z m105 95l0 50c0 16-2 27-8 34-7 10-17 14-30 14-13 0-23-4-30-14-5-7-8-19-8-34l0-50c0-15 3-26 8-33 7-10 17-15 30-15 13 0 23 5 30 15 6 7 8 18 8 33z m96-46l0 142-26 0 0-15c-10 12-20 17-29 17-9 0-15-3-17-10-2-5-3-12-3-22l0-112 26 0 0 105c0 6 1 9 1 10 0 4 2 6 6 6 5 0 10-4 16-12l0-109z"/>
    </symbol>
    <symbol id="icon-twitter" viewBox="0 0 512 512">
        <path d="m481 117c-13 18-28 34-46 47 0 3 0 7 0 12 0 25-3 50-11 74-7 25-18 49-33 71-14 23-32 43-52 61-21 17-45 31-74 41-29 11-60 16-92 16-52 0-99-14-142-42 7 1 14 2 22 2 43 0 81-14 115-40-20 0-38-6-54-18-16-12-27-27-33-46 7 1 13 2 18 2 8 0 16-1 24-4-21-4-39-15-53-31-14-17-21-37-21-59l0-1c13 7 27 11 42 11-13-8-23-19-30-32-8-14-11-29-11-44 0-17 4-33 12-47 23 28 51 51 84 68 33 17 69 27 107 29-2-8-3-15-3-22 0-25 9-47 27-65 18-18 40-27 66-27 26 0 49 10 67 29 21-4 40-11 59-22-7 22-21 39-41 51 18-2 35-7 53-14z"/>
    </symbol>
    <symbol id="icon-facebook" viewBox="0 0 512 512">
        <path d="m384 3l0 76-45 0c-17 0-28 3-33 10-6 7-9 17-9 31l0 54 84 0-11 85-73 0 0 216-87 0 0-216-73 0 0-85 73 0 0-62c0-36 10-63 29-83 20-19 47-29 80-29 28 0 49 1 65 3z"/>
    </symbol>
    <symbol id="icon-caret-down" viewBox="0 0 512 512">
        <path d="m402 201c0 5-2 9-5 13l-128 128c-4 4-8 5-13 5-5 0-9-1-13-5l-128-128c-3-4-5-8-5-13 0-5 2-9 5-13 4-3 8-5 13-5l256 0c5 0 9 2 13 5 3 4 5 8 5 13z"/>
    </symbol>
    <symbol id="icon-google-plus" viewBox="0 0 512 512">
        <path d="m228 227c0 7 3 14 9 21 7 6 14 13 23 19 8 6 17 13 25 21 9 8 16 18 22 30 7 12 10 25 10 40 0 17-5 34-14 50-14 23-34 40-60 51-27 11-55 16-86 16-25 0-48-4-70-11-22-8-38-21-49-40-7-11-11-24-11-37 0-16 5-30 13-43 9-13 20-24 34-33 25-15 63-25 115-28-6-8-10-15-13-22-3-6-5-13-5-20 0-7 2-15 6-25-8 1-15 1-19 1-28 0-52-9-71-27-20-19-29-42-29-70 0-16 3-31 10-45 7-15 16-28 28-38 15-12 32-22 52-28 21-6 41-9 63-9l119 0-39 25-38 0c14 12 25 25 32 38 7 13 11 29 11 46 0 14-2 26-7 37-5 11-10 20-17 26-6 7-13 13-20 19-6 6-12 11-17 18-4 6-7 12-7 18z m-41-27c7 0 14-2 22-5 7-3 14-7 19-12 10-11 15-26 15-46 0-11-2-23-5-35-3-13-8-25-14-37-6-12-14-22-24-30-10-8-21-12-33-12-8 0-16 2-24 6-8 4-14 9-19 15-9 11-13 26-13 46 0 8 1 18 3 28 2 9 5 19 9 29 4 10 9 19 15 26 5 8 13 15 21 20 8 5 18 7 28 7z m0 249c11 0 22-1 32-3 10-3 20-6 28-11 9-5 16-12 21-21 5-9 8-20 8-31 0-5-1-10-2-14-1-5-3-9-4-12-2-4-4-8-8-12-4-5-6-8-8-10-2-2-6-6-11-10-6-5-9-7-11-8-1-2-5-4-12-9-6-5-9-7-10-7-3-1-8-1-14-1-10 0-20 1-30 2-10 1-20 4-30 7-11 4-20 8-28 13-8 6-15 13-20 22-5 8-7 18-7 30 0 13 3 25 10 35 6 10 15 18 26 24 10 5 22 10 34 12 12 3 24 4 36 4z m232-250l60 0 0 31-60 0 0 63-30 0 0-63-61 0 0-31 61 0 0-62 30 0z"/>
    </symbol>
    <symbol id="icon-instagram" viewBox="0 0 512 512">
        <path d="m426 407l0-185l-39 0c4 12 6 25 6 38c0 24-6 46-18 66c-13 20-29 36-50 48c-21 12-44 18-69 18c-37 0-69-13-96-39c-27-26-40-57-40-93c0-13 2-26 6-38l-41 0l0 185c0 5 2 10 5 13c4 3 8 5 13 5l305 0c5 0 9-2 13-5c3-3 5-8 5-13z m-81-152c0-23-9-44-26-60c-18-17-38-25-63-25c-24 0-45 8-62 25c-17 16-26 37-26 60c0 24 9 44 26 61c17 16 38 25 62 25c25 0 45-9 63-25c17-17 26-37 26-61z m81-103l0-47c0-5-2-10-6-14c-4-4-8-6-14-6l-50 0c-5 0-10 2-14 6c-4 4-5 9-5 14l0 47c0 6 1 10 5 14c4 4 9 6 14 6l50 0c6 0 10-2 14-6c4-4 6-8 6-14z m49-59l0 326c0 16-5 29-16 40c-11 11-24 16-40 16l-326 0c-16 0-29-5-40-16c-11-11-16-24-16-40l0-326c0-16 5-29 16-40c11-11 24-16 40-16l326 0c16 0 29 5 40 16c11 11 16 24 16 40z"/>
    </symbol>
    <symbol id="icon-link" viewBox="0 0 512 512">
        <path d="m202 376c5-5 10-7 17-7c7 0 13 2 19 7c10 11 10 23 0 36c0 0-22 20-22 20c-19 19-42 29-68 29c-26 0-49-10-68-29c-19-19-29-42-29-67c0-27 10-50 29-69c0 0 76-76 76-76c24-23 48-36 73-39c26-3 47 4 66 22c5 5 8 11 8 18c0 7-3 13-8 19c-12 11-24 11-36 0c-17-17-40-11-68 17c0 0-75 75-75 75c-9 9-14 20-14 33c0 13 5 23 14 31c9 9 19 14 32 14c13 0 23-5 32-14c0 0 22-20 22-20m230-294c19 19 29 42 29 68c0 26-10 49-29 68c0 0-81 81-81 81c-25 25-51 37-77 37c-21 0-40-9-57-26c-5-5-7-10-7-17c0-7 2-13 7-19c5-4 11-7 18-7c7 0 13 3 18 7c17 17 38 13 62-12c0 0 81-80 81-80c10-9 15-20 15-32c0-13-5-24-15-32c-8-9-17-14-28-16c-11-2-22 2-31 11c0 0-26 25-26 25c-5 5-11 7-18 7c-7 0-13-2-18-7c-11-11-11-23 0-36c0 0 26-25 26-25c18-19 40-27 65-26c25 1 47 11 66 31"/>
    </symbol>

    <symbol id="play" viewBox="0 0 512 512">
        <path d="M405.2 232.9L126.8 67.2c-3.4-2-6.9-3.2-10.9-3.2-10.9 0-19.8 9-19.8 20H96v344h.1c0 11 8.9 20 19.8 20 4.1 0 7.5-1.4 11.2-3.4l278.1-165.5c6.6-5.5 10.8-13.8 10.8-23.1s-4.2-17.5-10.8-23.1z"/>
    </symbol>
    <symbol id="location" viewBox="0 0 512 512">
        <path d="m256 32c-80 0-144 64-144 144 0 112 144 304 144 304 0 0 144-192 144-304 0-80-64-144-144-144z m0 191c-26 0-47-21-47-47 0-26 21-47 47-47 26 0 47 21 47 47 0 26-21 47-47 47z"></path>
    </symbol>
    <symbol id="map" viewBox="0 0 128 128">
        <path d="M59.814 106.09L27 94V21l32.814 12.09a15 15 0 0010.372 0L103 21v73l-32.814 12.09a15 15 0 01-10.372 0zM65 83.042V34M65 95v-2.958" fill="none"  stroke-linecap="round" stroke-linejoin="round" stroke-miterlimit="10" stroke-width="4"/>
        <path d="M103.129 30.763L110 30v73l-43.344 4.816a15 15 0 01-3.312 0L20 103V30l6.871.763" fill="none"  stroke-linecap="round" stroke-linejoin="round" stroke-miterlimit="10" stroke-width="4"/>
    </symbol>
    <symbol id="arrow-right" viewBox="0 0 16 31">
        <title>Arrow-right</title>
        <g id="Layer_2" data-name="Layer 2">
            <g id="ICON_PACK_VOL._1" data-name="ICON PACK VOL. 1">
                <path d="M.5,31a.47.47,0,0,1-.35-.15.48.48,0,0,1,0-.7L14.79,15.5.15.85a.48.48,0,0,1,0-.7.48.48,0,0,1,.7,0l15,15a.48.48,0,0,1,0,.7l-15,15A.47.47,0,0,1,.5,31Z" />
            </g>
        </g>
    </symbol>
    <symbol viewBox="0 0 13.89 21.341" id="icon-swiper-arrow">
        <path d="M2.828 18.513l8.235-7.843M2.828 2.828l8.235 7.843" stroke-linecap="round" stroke-width="4"></path>
    </symbol>

    <symbol id="error" viewBox="0 0 25.55 29.43">
        <title>Error</title>
        <g id="Layer_2" data-name="Layer 2">
            <g id="ICON_PACK_VOL._1" data-name="ICON PACK VOL. 1">
                <path d="M12.78,0A12.78,12.78,0,0,0,.17,10.81v0h0A13.85,13.85,0,0,0,0,12.78V16A7,7,0,0,0,6.46,23v6a.5.5,0,0,0,.5.5.5.5,0,0,0,.5-.5V22.47A.5.5,0,0,0,7,22a6,6,0,0,1-6-6V12.78a11.35,11.35,0,0,1,.1-1.44h0c2.46,0,4.94-1.75,4.94-5.67a.5.5,0,0,0-.5-.5.5.5,0,0,0-.5.5c0,3.37-2,4.61-3.83,4.66a11.78,11.78,0,0,1,23,0c-1.88-.05-3.84-1.29-3.84-4.66a.5.5,0,0,0-1,0c0,3.92,2.49,5.67,4.95,5.67h.05a11.36,11.36,0,0,1,.09,1.44V16a6,6,0,0,1-6,6,.5.5,0,0,0-.5.5v6.46a.5.5,0,0,0,.5.5.5.5,0,0,0,.5-.5V23A7,7,0,0,0,25.55,16V12.78A12.79,12.79,0,0,0,12.78,0Z" />
                <path d="M10.84,22a.5.5,0,0,0-.5.5v6.46a.5.5,0,0,0,1,0V22.47A.5.5,0,0,0,10.84,22Z" />
                <path d="M14.72,22a.5.5,0,0,0-.5.5v6.46a.5.5,0,0,0,.5.5.5.5,0,0,0,.5-.5V22.47A.5.5,0,0,0,14.72,22Z" />
                <path d="M23,16a4.38,4.38,0,1,0-4.38,4.37A4.38,4.38,0,0,0,23,16Zm-7.75,0a3.38,3.38,0,1,1,3.37,3.37A3.38,3.38,0,0,1,15.22,16Z" />
                <path d="M7,11.63A4.38,4.38,0,1,0,11.34,16,4.39,4.39,0,0,0,7,11.63Zm0,7.75A3.38,3.38,0,1,1,10.34,16,3.38,3.38,0,0,1,7,19.38Z" />
                <path d="M13.22,18.37a.49.49,0,0,0-.44-.28.51.51,0,0,0-.45.28l-.65,1.29a.5.5,0,0,0,.45.72h1.29a.51.51,0,0,0,.43-.23.5.5,0,0,0,0-.49Z" />
            </g>
        </g>
    </symbol>


    <symbol id="arrow" viewBox="0 0 46.42 11">
        <title>Arrow</title>
        <g id="Layer_2" data-name="Layer 2">
            <g id="Layer_1-2" data-name="Layer 1">
                <path d="M0,11H4.17C12.3,11,20,0,23.21,0,26.1,0,33.57,11,41.8,11h4.62"/>
            </g>
        </g>
    </symbol>

    <symbol id="icon-eye" viewBox="0 0 512 512">
        <path d="m475 274c-29-45-65-78-108-101 11 20 17 42 17 65 0 35-13 65-38 90-25 25-55 38-90 38-35 0-65-13-90-38-25-25-38-55-38-90 0-23 6-45 17-65-43 23-79 56-108 101 25 39 57 70 95 94 38 23 79 34 124 34 45 0 86-11 124-34 38-24 70-55 95-94z m-205-109c0-4-2-7-4-10-3-3-6-4-10-4-24 0-44 8-61 25-17 17-26 38-26 62 0 4 1 7 4 9 3 3 6 4 10 4 4 0 7-1 10-4 2-2 4-5 4-9 0-17 5-31 17-42 12-12 26-18 42-18 4 0 7-1 10-4 2-2 4-6 4-9z m242 109c0 7-2 13-6 20-26 44-62 79-107 105-45 27-93 40-143 40-50 0-98-13-143-40-45-26-81-61-107-105-4-7-6-13-6-20 0-6 2-13 6-19 26-44 62-79 107-106 45-26 93-39 143-39 50 0 98 13 143 39 45 27 81 62 107 106 4 6 6 13 6 19z"/>
    </symbol>
    <symbol id="icon-trash-o" viewBox="0 0 512 512">
        <path d="m201 210l0 165c0 3-1 5-2 6-2 2-4 3-7 3l-18 0c-3 0-5-1-7-3-2-1-2-3-2-6l0-165c0-2 0-5 2-6 2-2 4-3 7-3l18 0c3 0 5 1 7 3 1 1 2 4 2 6z m73 0l0 165c0 3-1 5-2 6-2 2-4 3-7 3l-18 0c-3 0-5-1-7-3-1-1-2-3-2-6l0-165c0-2 1-5 2-6 2-2 4-3 7-3l18 0c3 0 5 1 7 3 1 1 2 4 2 6z m73 0l0 165c0 3 0 5-2 6-2 2-4 3-7 3l-18 0c-3 0-5-1-7-3-1-1-2-3-2-6l0-165c0-2 1-5 2-6 2-2 4-3 7-3l18 0c3 0 5 1 7 3 2 1 2 4 2 6z m37 207l0-271-256 0 0 271c0 4 1 8 2 12 1 3 3 6 4 7 2 2 3 3 3 3l238 0c0 0 1-1 3-3 1-1 3-4 4-7 1-4 2-8 2-12z m-192-307l128 0-14-34c-1-1-3-2-5-3l-90 0c-2 1-4 2-5 3z m265 9l0 18c0 3-1 5-2 7-2 1-4 2-7 2l-27 0 0 271c0 16-5 30-14 41-9 12-20 17-32 17l-238 0c-12 0-23-5-32-16-9-11-14-25-14-41l0-272-27 0c-3 0-5-1-7-2-1-2-2-4-2-7l0-18c0-3 1-5 2-7 2-1 4-2 7-2l88 0 20-48c3-7 8-13 16-18 7-5 15-7 22-7l92 0c7 0 15 2 22 7 8 5 13 11 16 18l20 48 88 0c3 0 5 1 7 2 1 2 2 4 2 7z"/>
    </symbol>
    <symbol id="icon-file-text-o" viewBox="0 0 512 512">
        <path d="m456 109c5 5 10 12 14 21 4 9 5 18 5 25l0 330c0 7-2 14-8 19-5 5-11 8-19 8l-384 0c-8 0-14-3-19-8-6-5-8-12-8-19l0-458c0-7 2-14 8-19 5-5 11-8 19-8l256 0c8 0 16 2 25 6 9 4 17 8 22 13z m-127-70l0 107 108 0c-2-5-4-9-7-11l-89-90c-2-2-6-4-12-6z m110 436l0-292-119 0c-8 0-14-3-19-8-6-5-8-12-8-20l0-118-220 0 0 438z m-293-246c0-3 1-5 3-7 2-2 4-3 6-3l202 0c2 0 4 1 6 3 2 2 3 4 3 7l0 18c0 3-1 5-3 6-2 2-4 3-6 3l-202 0c-2 0-4-1-6-3-2-1-3-3-3-6z m211 64c2 0 4 0 6 2 2 2 3 4 3 7l0 18c0 3-1 5-3 7-2 1-4 2-6 2l-202 0c-2 0-4-1-6-2-2-2-3-4-3-7l0-18c0-3 1-5 3-7 2-2 4-2 6-2z m0 73c2 0 4 1 6 2 2 2 3 4 3 7l0 18c0 3-1 5-3 7-2 1-4 2-6 2l-202 0c-2 0-4-1-6-2-2-2-3-4-3-7l0-18c0-3 1-5 3-7 2-1 4-2 6-2z"/>
    </symbol>
    <symbol id="icon-cloud-upload-2" viewBox="0 0 512 512">
        <path d="m448 178l0-2c0-80-64-144-144-144c-53 0-100 29-124 73c-11-6-23-9-36-9c-44 0-80 36-80 80l0 2c-38 22-64 63-64 110c0 70 58 128 128 128l32 0l0-32l-32 0c-53 0-96-43-96-96c0-34 18-65 48-83l16-9l0-18l0-4c1-25 22-46 48-46c7 0 14 2 21 5l27 14l15-26c21-36 57-57 97-57c61 0 111 49 112 110l0 1l0 21l16 9c30 18 48 49 48 83c0 53-43 96-96 96l-32 0l0 32l32 0c70 0 128-58 128-128c0-47-26-88-64-110m-192 14l-96 128l64 0l0 160l64 0l0-160l64 0z"/>
    </symbol>
    <symbol id="arrow-down" viewBox="0 0 31 16">
        <path d="M0,.5A.47.47,0,0,1,.15.15a.48.48,0,0,1,.7,0L15.5,14.79,30.15.15a.48.48,0,0,1,.7,0,.48.48,0,0,1,0,.7l-15,15a.48.48,0,0,1-.7,0L.15.85A.47.47,0,0,1,0,.5Z" />
    </symbol>

        <symbol id="icon-arrow-right-1" viewBox="0 0 512 512">
      <path d="m107 299l192 0l0 96l138-139l-138-139l0 96l-193 0c-23 0-42 19-42 43c0 24 20 43 43 43z"/>
    </symbol>
  
    <symbol id="icon-arrow-left-1" viewBox="0 0 512 512">
      <path d="m384 213l-192 0l0-96l-139 139l139 139l0-96l193 0c23 0 42-19 42-43c0-24-20-43-43-43z"/>
    </symbol>
     <symbol id="icon-cart" viewBox="0 0 489 489" >
        <path d="M440.1 422.7l-28-315.3c-.6-7-6.5-12.3-13.4-12.3h-57.6C340.3 42.5 297.3 0 244.5 0s-95.8 42.5-96.6 95.1H90.3c-7 0-12.8 5.3-13.4 12.3l-28 315.3c0 .4-.1.8-.1 1.2 0 35.9 32.9 65.1 73.4 65.1h244.6c40.5 0 73.4-29.2 73.4-65.1 0-.4 0-.8-.1-1.2zM244.5 27c37.9 0 68.8 30.4 69.6 68.1H174.9c.8-37.7 31.7-68.1 69.6-68.1zm122.3 435H122.2c-25.4 0-46-16.8-46.4-37.5l26.8-302.3h45.2v41c0 7.5 6 13.5 13.5 13.5s13.5-6 13.5-13.5v-41h139.3v41c0 7.5 6 13.5 13.5 13.5s13.5-6 13.5-13.5v-41h45.2l26.9 302.3c-.4 20.7-21.1 37.5-46.4 37.5z"/>
    </symbol>
</svg>
