<svg xmlns="http://www.w3.org/2000/svg" viewBox="0 0 1057 257" width="1057" height="257">
	<defs>
		<clipPath clipPathUnits="userSpaceOnUse" id="cp1">
			<path d="M-847 -1288L1988 -1288L1988 1547L-847 1547Z" />
		</clipPath>
	</defs>
	<style>
		tspan { white-space:pre }
		.shp0 { fill: #4a00ff } 
		.shp1 { fill: #ffffff } 
	</style>
	<g id="Page 1" clip-path="url(#cp1)">
		<path id="Path 2" fill-rule="evenodd" class="shp0" d="M1056.7 162.92C1056.7 175.2 1051.5 185.03 1041.09 192.41C1030.68 199.8 1017.29 203.49 1000.92 203.49C983.84 203.49 969.7 199.22 958.49 190.68C947.28 182.14 941.32 171.29 940.61 158.12L978.78 158.12C979.48 163.81 981.98 168.13 986.25 171.06C990.52 174 995.76 175.47 1001.99 175.47C1013.56 175.47 1019.34 171.91 1019.34 164.79C1019.34 161.23 1018.05 158.52 1015.47 156.65C1012.89 154.78 1008.57 153.05 1002.53 151.45L977.44 145.04C966.05 142.02 957.56 136.9 951.95 129.7C946.35 122.49 943.55 113.82 943.55 103.68C943.55 92.11 948.39 82.64 958.09 75.25C967.79 67.87 980.82 64.18 997.19 64.18C1012.13 64.18 1024.58 67.96 1034.55 75.52C1044.51 83.09 1050.03 93.36 1051.1 106.35L1014.27 106.35C1012.67 97.27 1006.8 92.73 996.66 92.73C991.85 92.73 988.02 93.63 985.18 95.4C982.33 97.18 980.91 99.67 980.91 102.88C980.91 108.75 985.98 112.84 996.12 115.15L1019.61 121.56C1032.59 124.76 1042.02 129.79 1047.9 136.64C1053.77 143.49 1056.7 152.25 1056.7 162.92ZM890.97 67.11L927.54 67.11L927.54 200.55L890.97 200.55L890.97 185.34C882.79 197.44 870.6 203.49 854.41 203.49C838.57 203.49 826.25 198.15 817.45 187.47C808.64 176.8 804.24 162.48 804.24 144.51L804.24 67.11L840.8 67.11L840.8 138.37C840.8 159.55 848.36 170.13 863.49 170.13C872.02 170.13 878.74 166.93 883.63 160.52C888.52 154.12 890.97 144.69 890.97 132.23L890.97 67.11ZM747.39 0.4L783.96 0.4L783.96 200.55L747.39 200.55L747.39 0.4ZM715.91 84.73C728 98.43 734.05 114.8 734.05 133.83C734.05 152.87 728 169.24 715.91 182.94C703.8 196.64 688.95 203.49 671.34 203.49C662.8 203.49 655.06 201.71 648.12 198.15C641.18 194.59 636.02 190.41 632.64 185.61L632.64 256.33L596.08 256.33L596.08 172.82L639.04 75.33C641.62 73.23 644.65 71.3 648.12 69.52C655.06 65.96 662.8 64.18 671.34 64.18C688.95 64.18 703.8 71.03 715.91 84.73ZM696.96 133.83C696.96 123.16 693.89 114.44 687.75 107.68C681.61 100.92 673.47 97.54 663.33 97.54C653.19 97.54 645.05 100.92 638.91 107.68C632.77 114.44 629.7 123.16 629.7 133.83C629.7 144.51 632.77 153.23 638.91 159.99C645.05 166.75 653.19 170.13 663.33 170.13C673.47 170.13 681.61 166.75 687.75 159.99C693.89 153.23 696.96 144.51 696.96 133.83Z" />
		<path id="Path 3" fill-rule="evenodd" class="shp1" d="M632.77 70.05L574.32 203.49L536.96 203.49L493.82 105L484.39 105L484.39 105.01L447.03 105.01L447.03 146.38C447.03 154.38 448.8 160.12 452.36 163.59C455.92 167.06 461.71 168.8 469.71 168.8C476.29 168.8 481.19 168.09 484.39 166.66L484.39 202.42C478.52 204.2 470.51 205.09 460.37 205.09C444.71 205.09 431.86 200.78 421.81 192.15C411.75 183.52 406.73 171.02 406.73 154.65L406.73 105.01L385.64 105.01L385.64 70.05L406.73 70.05L406.73 32.95L447.03 32.95L447.03 70.05L523.08 70.05L555.38 151.18L587.94 70.05L632.77 70.05ZM371.76 168.8C378.17 168.8 382.97 168.09 386.18 166.66L386.18 202.42C380.31 204.2 372.3 205.09 362.16 205.09C346.5 205.09 333.64 200.78 323.59 192.15C313.54 183.52 308.51 171.02 308.51 154.65L308.51 105.01L281.83 105.01L281.83 70.05L308.51 70.05L308.51 32.95L348.81 32.95L348.81 70.05L377.1 70.05L377.1 105.01L348.81 105.01L348.81 146.38C348.81 154.38 350.59 160.12 354.15 163.59C357.71 167.06 363.58 168.8 371.76 168.8ZM276.49 111.68C280.23 121.82 281.92 133.3 281.56 146.11L178.81 146.11C179.52 153.41 182.73 159.5 188.42 164.39C194.11 169.29 202.12 171.73 212.44 171.73C218.31 171.73 223.65 170.53 228.45 168.13C233.26 165.72 236.46 162.75 238.06 159.19L280.23 159.19C275.96 173.24 267.42 184.63 254.61 193.35C241.8 202.07 227.03 206.42 210.31 206.42C189.66 206.42 172.72 199.84 159.47 186.68C146.21 173.51 139.58 156.79 139.58 136.5C139.58 116.58 146.3 100.03 159.73 86.86C173.16 73.7 190.02 67.11 210.31 67.11C220.09 67.11 229.3 68.81 237.93 72.18C246.56 75.57 254.21 80.46 260.88 86.86C267.55 93.27 272.75 101.54 276.49 111.68ZM236.99 120.49C235.03 113.2 231.43 107.81 226.18 104.34C220.94 100.87 215.29 99.14 209.24 99.14C201.59 99.14 195.23 101.1 190.16 105.01C185.09 108.92 181.66 114.08 179.88 120.49L236.99 120.49ZM115.7 83.39C124.86 94.25 129.45 108.57 129.45 126.36L129.45 203.49L89.15 203.49L89.15 133.3C89.15 113.55 81.94 103.67 67.53 103.67C59.52 103.67 53.03 106.61 48.05 112.48C43.06 118.35 40.58 127.07 40.58 138.64L40.58 203.49L0.28 203.49L0.28 70.05L40.58 70.05L40.58 83.66C48.22 72.63 60.59 67.11 77.67 67.11C93.86 67.11 106.54 72.54 115.7 83.39Z" />
	</g>
</svg>