<?xml version="1.0" standalone="no"?>
<!DOCTYPE svg PUBLIC "-//W3C//DTD SVG 20010904//EN"
 "http://www.w3.org/TR/2001/REC-SVG-20010904/DTD/svg10.dtd">
<svg version="1.0" xmlns="http://www.w3.org/2000/svg"
 width="260.000000pt" height="260.000000pt" viewBox="0 0 260.000000 260.000000"
 preserveAspectRatio="xMidYMid meet">
<metadata>
Created by potrace 1.11, written by Peter Selinger 2001-2013
</metadata>
<g transform="translate(0.000000,260.000000) scale(0.100000,-0.100000)"
fill="#000000" stroke="none">
<path d="M294 2581 c-102 -25 -201 -106 -250 -206 l-29 -60 0 -1015 0 -1015
29 -60 c38 -76 105 -143 181 -181 l60 -29 1015 0 1015 0 60 29 c76 38 143 105
181 181 l29 60 0 1015 0 1015 -29 60 c-38 76 -105 143 -181 181 l-60 29 -995
2 c-547 0 -1009 -2 -1026 -6z m1116 -801 l0 -60 45 0 45 0 0 -60 0 -60 -45 0
-45 0 0 -81 c0 -106 7 -119 70 -119 l50 0 0 -60 0 -60 -74 0 c-59 0 -79 4
-106 23 -65 43 -74 67 -78 188 l-4 109 -39 0 -39 0 0 60 0 60 40 0 40 0 0 60
0 60 70 0 70 0 0 -60z m320 0 l0 -60 124 0 124 0 52 -130 c29 -71 53 -130 54
-130 2 0 27 59 56 130 l53 130 73 0 74 0 -26 -57 c-14 -32 -57 -131 -96 -220
l-71 -163 -62 0 -62 0 -69 160 -69 160 -77 0 -78 0 0 -84 c0 -101 10 -116 76
-116 l44 0 0 -60 0 -60 -67 0 c-81 0 -128 20 -160 69 -20 30 -23 46 -23 142
l0 109 -35 0 -35 0 0 60 0 60 35 0 35 0 0 60 0 60 65 0 65 0 0 -60z m-1147
-64 c47 -19 84 -67 96 -126 6 -28 11 -109 11 -180 l0 -130 -70 0 -70 0 0 140
c0 136 -1 142 -25 165 -27 28 -42 30 -78 14 -43 -19 -51 -46 -55 -186 l-4
-133 -64 0 -64 0 0 220 0 220 65 0 c60 0 65 -2 65 -22 0 -20 1 -20 18 -5 41
37 118 47 175 23z m495 -23 c52 -32 96 -106 106 -180 l6 -43 -170 0 c-186 0
-194 -3 -144 -54 34 -34 108 -37 147 -6 19 15 40 20 91 20 36 0 66 -2 66 -5 0
-19 -35 -68 -70 -98 -65 -55 -156 -71 -242 -42 -157 54 -199 266 -77 382 74
70 198 81 287 26z"/>
<path d="M882 1597 c-38 -40 -29 -47 63 -47 93 0 106 10 63 50 -31 29 -98 27
-126 -3z"/>
</g>
</svg>
