<?xml version="1.0" standalone="no"?>
<!DOCTYPE svg PUBLIC "-//W3C//DTD SVG 20010904//EN"
 "http://www.w3.org/TR/2001/REC-SVG-20010904/DTD/svg10.dtd">
<svg version="1.0" xmlns="http://www.w3.org/2000/svg"
 width="512.000000pt" height="512.000000pt" viewBox="0 0 512.000000 512.000000"
 preserveAspectRatio="xMidYMid meet">
<metadata>
Created by potrace 1.11, written by Peter Selinger 2001-2013
</metadata>
<g transform="translate(0.000000,512.000000) scale(0.100000,-0.100000)"
fill="#000000" stroke="none">
<path d="M3869 4696 c-2 -2 -42 -6 -89 -10 -47 -3 -101 -8 -120 -11 -59 -9
-174 -27 -190 -30 -8 -2 -55 -10 -105 -19 -77 -14 -234 -47 -300 -62 -11 -3
-31 -7 -45 -10 -20 -4 -214 -48 -480 -109 -8 -2 -71 -18 -140 -35 -69 -17
-136 -33 -150 -36 -14 -3 -50 -12 -80 -20 -74 -20 -87 -23 -108 -28 -9 -2 -37
-10 -62 -17 -25 -7 -50 -13 -57 -15 -6 -1 -63 -16 -125 -34 -62 -17 -120 -33
-128 -35 -28 -6 -324 -96 -435 -132 -486 -156 -720 -237 -767 -263 -10 -6 -23
-10 -28 -10 -30 0 -185 -88 -225 -128 -65 -65 -85 -124 -80 -242 4 -92 10
-162 19 -225 12 -75 20 -153 21 -182 0 -18 3 -33 6 -33 3 0 11 -37 19 -82 7
-46 14 -90 16 -98 14 -70 57 -273 68 -321 8 -33 15 -63 15 -67 1 -4 6 -24 12
-46 6 -21 8 -45 4 -54 -3 -9 -3 -13 2 -9 4 4 20 -45 35 -110 16 -65 30 -125
32 -133 2 -8 11 -42 20 -75 9 -33 19 -69 21 -79 2 -10 9 -34 15 -52 6 -19 9
-38 5 -44 -3 -5 -2 -10 3 -10 13 0 46 -116 37 -130 -5 -8 -4 -11 2 -7 6 4 16
-13 24 -41 17 -63 16 -61 19 -67 1 -3 3 -8 5 -12 1 -5 4 -15 8 -23 10 -27 51
-155 53 -167 3 -19 110 -303 138 -368 30 -70 58 -144 54 -148 -1 -2 2 -10 9
-18 6 -8 22 -41 34 -74 12 -33 40 -88 61 -123 21 -35 36 -67 32 -73 -3 -5 -2
-9 3 -8 17 3 36 -1 30 -7 -8 -9 51 -58 102 -84 28 -14 61 -22 93 -22 35 1 46
-2 41 -11 -5 -9 -3 -9 8 -1 8 6 28 10 44 10 22 -1 30 -6 29 -19 -1 -12 2 -15
10 -9 6 5 27 8 47 7 24 -1 36 3 36 11 0 9 -5 10 -11 5 -6 -5 -22 -7 -36 -6
-14 2 -28 4 -32 4 -5 1 -8 4 -8 9 0 4 15 8 32 8 31 1 86 8 153 18 17 3 48 7
70 10 22 3 69 12 105 20 49 10 69 11 79 2 11 -8 13 -8 8 0 -8 13 25 24 54 19
10 -2 19 0 19 4 0 4 12 8 28 7 21 -1 27 -6 26 -23 -1 -13 2 -20 7 -18 4 3 6
16 3 30 -3 18 -1 23 10 19 8 -3 17 0 21 6 5 8 11 5 21 -7 13 -16 14 -16 8 0
-3 9 -1 17 5 17 6 0 11 -6 11 -12 0 -10 2 -10 8 0 12 18 72 34 72 19 0 -9 2
-9 8 -1 12 18 52 27 52 12 0 -10 3 -9 10 2 5 8 10 11 10 5 0 -5 4 -4 9 4 7 10
13 11 30 2 12 -7 18 -17 15 -23 -5 -7 -2 -8 5 -3 9 5 10 10 2 18 -6 6 -11 15
-11 21 0 5 3 7 6 3 3 -3 19 -1 35 5 22 7 33 7 44 -2 13 -11 14 -10 9 5 -5 13
-4 16 5 11 6 -4 18 -2 26 4 8 7 15 10 15 7 0 -3 31 3 69 13 52 13 73 15 82 6
9 -8 10 -8 5 1 -10 18 18 22 32 4 11 -14 11 -14 6 2 -7 19 12 24 19 5 4 -9 6
-7 6 3 1 9 7 16 14 17 6 0 26 4 42 8 17 3 37 7 45 8 9 1 21 5 28 10 7 4 20 2
29 -6 12 -9 15 -9 9 0 -4 7 -2 13 6 14 23 2 33 5 58 15 14 6 29 9 33 6 4 -3
14 1 22 7 8 7 21 10 30 7 8 -4 17 -2 20 4 4 5 10 7 15 4 5 -3 11 -1 14 4 4 5
17 8 31 6 14 -1 25 1 25 6 0 8 80 23 91 17 3 -2 12 2 20 8 8 7 28 15 44 18 17
3 41 9 55 12 14 3 33 7 43 7 9 1 17 5 17 10 0 5 9 7 20 4 11 -3 20 0 20 6 0 6
3 7 6 4 4 -3 15 -2 25 4 13 6 19 6 20 -1 1 -5 2 -14 3 -19 0 -5 4 -13 8 -16 4
-4 5 4 2 19 -4 21 0 28 21 36 32 12 48 13 41 2 -2 -4 4 -8 14 -8 13 0 16 4 9
12 -6 8 -4 14 6 18 11 4 14 2 9 -7 -5 -9 -4 -9 7 1 7 6 23 12 36 12 13 0 23 4
23 8 0 7 16 11 58 14 6 1 12 5 12 10 0 5 4 7 10 3 5 -3 6 -13 3 -23 -7 -18 -5
-17 17 12 12 16 12 18 1 11 -10 -5 -12 -4 -7 4 5 7 16 9 28 5 13 -4 18 -2 14
4 -4 6 4 9 19 7 14 -1 25 1 25 5 0 4 9 10 20 13 13 3 18 1 14 -6 -3 -7 1 -4 9
5 8 10 30 19 50 20 19 2 33 7 30 12 -3 4 5 5 18 1 13 -4 21 -4 17 0 -5 5 20
18 55 29 34 12 64 18 65 14 2 -5 8 -8 13 -8 6 0 8 4 4 9 -7 12 31 25 46 15 8
-4 9 -3 5 4 -7 12 4 15 47 15 9 0 17 3 17 7 0 7 60 29 90 33 8 2 20 5 25 8 20
12 90 33 103 31 6 -2 12 2 12 9 0 8 4 8 15 -1 13 -11 14 -10 9 4 -3 9 -1 16 5
16 6 0 12 -4 12 -10 1 -5 2 -14 3 -19 0 -5 4 -13 8 -16 4 -4 5 4 2 19 -3 19 0
28 13 32 15 5 36 13 77 32 5 3 5 -2 1 -9 -5 -8 1 -6 12 4 16 14 22 15 26 5 4
-8 6 -7 6 5 1 10 7 17 14 15 6 -1 22 4 35 11 30 16 54 8 46 -16 -5 -14 -4 -15
4 -4 5 7 14 11 20 7 12 -7 10 20 -3 31 -4 4 -5 2 -1 -4 8 -15 -10 -18 -19 -3
-12 20 28 24 42 4 15 -18 15 -18 9 1 -5 17 1 24 29 37 19 9 38 12 41 7 3 -5
11 -9 17 -9 7 0 6 4 -3 10 -12 8 -12 10 2 15 10 4 22 3 29 -1 7 -4 9 -3 5 4
-4 6 4 16 16 23 45 24 107 76 100 84 -4 5 1 5 10 2 10 -3 20 -1 24 5 4 7 3 8
-4 4 -15 -9 -15 0 0 27 7 12 13 31 15 42 2 11 6 27 10 35 3 8 5 28 4 44 -2 20
1 26 10 21 8 -6 10 -4 3 6 -4 8 -9 29 -9 47 -1 28 2 33 17 29 10 -3 21 -1 24
4 3 5 2 9 -3 8 -31 -5 -43 3 -43 29 0 18 3 23 9 14 7 -11 9 -11 14 2 4 9 3 15
-1 15 -4 -1 -14 -1 -22 0 -13 1 -13 2 0 11 11 7 12 10 2 10 -8 0 -13 10 -12
23 1 12 1 25 0 30 -6 19 -6 34 3 51 6 13 6 16 -2 12 -6 -4 -11 -4 -12 1 0 4
-2 19 -4 33 -3 14 -7 41 -10 60 -3 19 -7 47 -10 62 -3 16 -7 40 -10 55 -2 15
1 34 8 42 9 12 9 13 -1 7 -17 -10 -29 24 -11 35 11 7 11 9 -3 9 -11 0 -16 6
-13 20 2 11 -1 22 -6 25 -5 4 -7 10 -5 14 3 4 0 25 -5 47 -5 21 -12 48 -14 58
-3 11 1 26 7 33 8 10 8 12 -3 8 -15 -6 -22 21 -23 97 -1 20 -4 34 -8 31 -5 -2
-9 2 -10 9 0 7 -2 18 -2 23 -1 6 -5 16 -9 23 -5 8 -3 12 7 12 23 0 20 16 -6
34 -12 9 -19 16 -15 16 3 0 2 11 -3 24 -6 16 -5 28 3 36 8 9 8 11 1 7 -7 -4
-14 3 -18 16 -8 30 -7 39 2 33 4 -2 8 5 9 17 0 12 -1 16 -4 10 -8 -23 -21 -14
-18 12 1 14 -1 25 -5 25 -5 0 -7 13 -6 29 1 17 -1 28 -5 26 -8 -6 -21 54 -13
66 3 5 1 9 -4 9 -5 0 -9 6 -10 13 -1 14 -2 19 -41 164 -10 40 -16 74 -13 77 3
4 1 6 -5 6 -6 0 -10 13 -9 29 1 17 -1 28 -5 25 -10 -6 -22 53 -14 66 3 5 -1
13 -9 16 -9 3 -16 16 -16 28 0 11 -7 33 -14 49 -8 15 -11 27 -5 27 5 0 9 5 9
11 0 5 -4 8 -9 5 -13 -9 -23 26 -11 38 5 5 10 15 10 21 0 5 -4 3 -10 -5 -7
-11 -11 -9 -20 14 -6 16 -12 36 -14 45 -2 9 -6 23 -9 31 -4 8 -8 24 -10 35 -1
11 -8 29 -14 40 -9 15 -8 22 5 32 16 12 16 13 0 7 -18 -6 -24 3 -30 41 -2 11
-6 22 -9 25 -12 9 -22 53 -11 46 6 -3 14 -2 17 4 4 6 3 10 -2 9 -22 -4 -33 3
-33 20 0 11 -5 23 -11 27 -6 3 -9 17 -6 30 2 13 0 22 -6 21 -9 -2 -17 19 -19
51 -1 6 -6 12 -11 12 -6 0 -8 3 -4 6 3 4 -3 24 -14 46 -11 21 -17 43 -14 47 3
5 1 11 -4 13 -5 1 -11 12 -13 23 -1 11 -5 22 -8 25 -8 8 -49 103 -52 120 -2 8
-6 17 -10 20 -3 3 -8 12 -10 20 -2 8 -9 21 -16 28 -7 8 -10 18 -7 23 4 5 1 9
-5 9 -6 0 -8 5 -5 10 3 6 1 10 -5 10 -6 0 -15 11 -20 25 -36 94 -140 180 -230
191 -19 3 -47 6 -61 9 -15 2 -28 3 -30 1z m926 -2026 c3 -5 1 -10 -4 -10 -6 0
-11 5 -11 10 0 6 2 10 4 10 3 0 8 -4 11 -10z"/>
<path d="M4290 4319 c0 -5 5 -7 10 -4 6 3 10 8 10 11 0 2 -4 4 -10 4 -5 0 -10
-5 -10 -11z"/>
<path d="M4620 3460 c-9 -6 -10 -10 -3 -10 6 0 15 5 18 10 8 12 4 12 -15 0z"/>
<path d="M4636 3353 c-6 -14 -5 -15 5 -6 7 7 10 15 7 18 -3 3 -9 -2 -12 -12z"/>
<path d="M4667 3219 c7 -7 15 -10 18 -7 3 3 -2 9 -12 12 -14 6 -15 5 -6 -5z"/>
<path d="M4700 3086 c0 -2 8 -10 18 -17 15 -13 16 -12 3 4 -13 16 -21 21 -21
13z"/>
<path d="M4873 2345 c0 -8 4 -12 9 -9 5 3 6 10 3 15 -9 13 -12 11 -12 -6z"/>
<path d="M4913 2087 c0 -8 6 -14 14 -14 9 0 10 4 2 14 -6 7 -12 13 -14 13 -1
0 -2 -6 -2 -13z"/>
<path d="M4925 2040 c-3 -6 1 -7 9 -4 18 7 21 14 7 14 -6 0 -13 -4 -16 -10z"/>
<path d="M4936 1907 c3 -10 9 -15 12 -12 3 3 0 11 -7 18 -10 9 -11 8 -5 -6z"/>
<path d="M4956 1687 c3 -10 9 -15 12 -12 3 3 0 11 -7 18 -10 9 -11 8 -5 -6z"/>
<path d="M4933 1474 c0 -17 2 -22 7 -13 5 6 6 18 3 26 -8 19 -10 16 -10 -13z"/>
<path d="M4853 1408 c1 -15 6 -23 11 -18 4 4 4 16 -2 26 -9 16 -10 14 -9 -8z"/>
<path d="M4831 1404 c0 -11 3 -14 6 -6 3 7 2 16 -1 19 -3 4 -6 -2 -5 -13z"/>
<path d="M4785 1379 c-3 -4 2 -6 10 -5 21 3 28 13 10 13 -9 0 -18 -4 -20 -8z"/>
<path d="M4758 1343 c7 -3 16 -2 19 1 4 3 -2 6 -13 5 -11 0 -14 -3 -6 -6z"/>
<path d="M4670 1296 c7 -7 13 -7 20 0 6 6 3 10 -10 10 -13 0 -16 -4 -10 -10z"/>
<path d="M4521 1237 c-13 -21 -12 -21 5 -5 10 10 16 20 13 22 -3 3 -11 -5 -18
-17z"/>
<path d="M4438 1223 c7 -3 16 -2 19 1 4 3 -2 6 -13 5 -11 0 -14 -3 -6 -6z"/>
<path d="M4411 1213 c-1 -17 16 -25 25 -12 4 7 3 9 -4 5 -5 -3 -13 0 -15 6 -4
9 -6 10 -6 1z"/>
<path d="M4267 1167 c-3 -8 0 -14 7 -14 7 0 13 6 13 14 0 7 -4 13 -8 13 -4 0
-9 -6 -12 -13z"/>
<path d="M4313 1165 c0 -8 4 -12 9 -9 5 3 6 10 3 15 -9 13 -12 11 -12 -6z"/>
<path d="M4124 1125 c-13 -11 -14 -14 -4 -13 9 2 14 -3 12 -12 -2 -8 0 -12 4
-7 6 6 14 47 9 47 -1 0 -10 -7 -21 -15z"/>
<path d="M4173 1125 c0 -8 4 -12 9 -9 5 3 6 10 3 15 -9 13 -12 11 -12 -6z"/>
<path d="M4039 1108 c-5 -18 -6 -38 -1 -34 7 8 12 36 6 36 -2 0 -4 -1 -5 -2z"/>
<path d="M3986 1065 c-11 -8 -15 -15 -9 -15 6 0 16 7 23 15 16 19 11 19 -14 0z"/>
<path d="M3891 1044 c0 -11 3 -14 6 -6 3 7 2 16 -1 19 -3 4 -6 -2 -5 -13z"/>
<path d="M3730 1000 c0 -4 7 -7 15 -6 23 3 26 12 5 13 -11 1 -20 -2 -20 -7z"/>
<path d="M3531 924 c0 -11 3 -14 6 -6 3 7 2 16 -1 19 -3 4 -6 -2 -5 -13z"/>
<path d="M3490 899 c0 -5 5 -7 10 -4 6 3 10 8 10 11 0 2 -4 4 -10 4 -5 0 -10
-5 -10 -11z"/>
<path d="M3280 860 c-9 -6 -10 -10 -3 -10 6 0 15 5 18 10 8 12 4 12 -15 0z"/>
<path d="M3190 829 c0 -5 5 -7 10 -4 6 3 10 8 10 11 0 2 -4 4 -10 4 -5 0 -10
-5 -10 -11z"/>
<path d="M3106 822 c-2 -4 4 -8 14 -8 10 0 16 4 14 8 -3 4 -9 8 -14 8 -5 0
-11 -4 -14 -8z"/>
<path d="M3018 778 c-9 -5 -6 -7 9 -5 12 2 25 6 28 8 8 9 -23 6 -37 -3z"/>
<path d="M2894 759 c-3 -6 -1 -16 5 -22 9 -9 11 -8 6 5 -4 11 0 18 12 21 15 4
16 5 1 6 -9 0 -20 -4 -24 -10z"/>
<path d="M2595 690 c-4 -6 -10 -8 -15 -5 -5 3 -11 1 -14 -4 -8 -13 22 -7 36 7
7 7 9 12 6 12 -4 0 -10 -5 -13 -10z"/>
<path d="M2650 696 c0 -2 8 -10 18 -17 15 -13 16 -12 3 4 -13 16 -21 21 -21
13z"/>
<path d="M2397 653 c-10 -9 -9 -23 1 -23 5 0 9 7 9 15 0 17 -1 18 -10 8z"/>
<path d="M2421 657 c2 -1 11 -8 21 -15 12 -10 18 -10 24 -1 4 7 3 9 -4 5 -6
-3 -13 -2 -17 4 -3 5 -11 10 -17 10 -6 0 -9 -1 -7 -3z"/>
<path d="M2310 630 c-9 -6 -10 -10 -3 -10 6 0 15 5 18 10 8 12 4 12 -15 0z"/>
<path d="M2340 626 c0 -2 8 -10 18 -17 15 -13 16 -12 3 4 -13 16 -21 21 -21
13z"/>
<path d="M2233 605 c0 -8 4 -12 9 -9 5 3 6 10 3 15 -9 13 -12 11 -12 -6z"/>
<path d="M2000 559 c0 -5 5 -7 10 -4 6 3 10 8 10 11 0 2 -4 4 -10 4 -5 0 -10
-5 -10 -11z"/>
<path d="M1910 532 c0 -15 28 -23 36 -9 4 7 4 9 -1 5 -4 -4 -14 -3 -22 3 -8 7
-13 8 -13 1z"/>
<path d="M1993 525 c0 -8 4 -12 9 -9 5 3 6 10 3 15 -9 13 -12 11 -12 -6z"/>
<path d="M1778 498 c-9 -5 -6 -7 9 -5 12 2 25 6 28 8 8 9 -23 6 -37 -3z"/>
<path d="M1836 502 c-3 -5 1 -9 9 -9 8 0 12 4 9 9 -3 4 -7 8 -9 8 -2 0 -6 -4
-9 -8z"/>
<path d="M1620 491 c0 -6 4 -13 10 -16 6 -3 7 1 4 9 -7 18 -14 21 -14 7z"/>
<path d="M1656 487 c3 -10 9 -15 12 -12 3 3 0 11 -7 18 -10 9 -11 8 -5 -6z"/>
<path d="M1585 480 c-3 -6 1 -7 9 -4 18 7 21 14 7 14 -6 0 -13 -4 -16 -10z"/>
<path d="M1476 458 c3 -5 10 -6 15 -3 13 9 11 12 -6 12 -8 0 -12 -4 -9 -9z"/>
<path d="M1467 439 c7 -7 15 -10 18 -7 3 3 -2 9 -12 12 -14 6 -15 5 -6 -5z"/>
<path d="M1546 442 c-3 -5 1 -9 9 -9 8 0 12 4 9 9 -3 4 -7 8 -9 8 -2 0 -6 -4
-9 -8z"/>
<path d="M1196 418 c3 -5 10 -6 15 -3 13 9 11 12 -6 12 -8 0 -12 -4 -9 -9z"/>
</g>
</svg>
